<svg width="285" height="54" viewBox="0 0 285 54" fill="none" xmlns="http://www.w3.org/2000/svg">
<path fill-rule="evenodd" clip-rule="evenodd" d="M31.2727 0.00167827C32.7215 -0.0496603 33.9375 1.08316 33.9888 2.5319L34.4874 16.6005L47.3602 10.9027C48.6858 10.316 50.2361 10.915 50.8228 12.2406C51.4096 13.5662 50.8106 15.1164 49.485 15.7032L33.064 22.9714C32.2672 23.3241 31.3474 23.2584 30.6088 22.796C29.8703 22.3337 29.4093 21.5349 29.3785 20.6642L28.7425 2.71781C28.6912 1.26907 29.824 0.053017 31.2727 0.00167827ZM6.33798 13.2693C4.94207 12.8782 3.49346 13.6929 3.10243 15.0888C2.71139 16.4847 3.52601 17.9333 4.92192 18.3243L22.2139 23.1683C23.0529 23.4033 23.9539 23.2067 24.6187 22.6434C25.2835 22.0801 25.6255 21.2237 25.5314 20.3574L23.5931 2.50474C23.4366 1.06356 22.1414 0.0221001 20.7002 0.178576C19.2591 0.335051 18.2176 1.63021 18.3741 3.07139L19.8936 17.0666L6.33798 13.2693ZM6.63772 41.6451C5.73795 42.7817 5.92994 44.4325 7.06655 45.3323C8.20316 46.2321 9.85398 46.0401 10.7538 44.9035L21.8998 30.8236C22.4406 30.1404 22.6072 29.2334 22.3443 28.4027C22.0815 27.5719 21.4235 26.9257 20.5882 26.678L3.37191 21.5715C1.9821 21.1593 0.521271 21.9518 0.109048 23.3416C-0.303176 24.7314 0.489309 26.1922 1.87911 26.6045L15.3754 30.6075L6.63772 41.6451ZM53.3181 24.3344C54.6677 23.805 55.3326 22.2819 54.8032 20.9323C54.2738 19.5828 52.7507 18.9179 51.4012 19.4472L34.6836 26.0047C33.8725 26.3228 33.2721 27.0228 33.0811 27.873C32.8901 28.7231 33.1335 29.6126 33.7307 30.2472L46.0379 43.3241C47.0314 44.3798 48.6926 44.4302 49.7483 43.4366C50.8039 42.4431 50.8543 40.7819 49.8608 39.7263L40.2128 29.4749L53.3181 24.3344ZM40.416 51.3019C39.2647 52.1828 37.6173 51.9636 36.7364 50.8123L28.182 39.6321L20.9878 51.7325C20.247 52.9785 18.6363 53.3881 17.3902 52.6472C16.1442 51.9064 15.7346 50.2957 16.4754 49.0497L25.6525 33.6141C26.0978 32.8652 26.8858 32.386 27.7556 32.3352C28.6255 32.2843 29.4639 32.6685 29.9933 33.3605L40.9056 47.6223C41.7865 48.7736 41.5673 50.421 40.416 51.3019ZM75.9889 6.3744H67.0192V45.1325H75.9889V6.3744ZM90.3917 43.6375C92.9387 44.9295 95.7994 45.5754 98.9738 45.5754C102.111 45.5754 104.843 44.911 107.168 43.5821C109.531 42.2533 111.247 40.4077 112.318 38.0453L105.618 34.3909C104.105 37.1225 101.871 38.4882 98.9185 38.4882C96.6668 38.4882 94.8027 37.75 93.3262 36.2735C91.8497 34.797 91.1115 32.7853 91.1115 30.2383C91.1115 27.6913 91.8497 25.6796 93.3262 24.2031C94.8027 22.7266 96.6668 21.9884 98.9185 21.9884C101.835 21.9884 104.068 23.3541 105.618 26.0856L112.318 22.4867C111.247 20.0505 109.531 18.1864 107.168 16.8944C104.843 15.5656 102.111 14.9012 98.9738 14.9012C95.7994 14.9012 92.9387 15.5656 90.3917 16.8944C87.8817 18.1864 85.9068 19.9951 84.4673 22.3206C83.0646 24.6461 82.3632 27.2853 82.3632 30.2383C82.3632 33.1913 83.0646 35.8305 84.4673 38.156C85.9068 40.4815 87.8817 42.3087 90.3917 43.6375ZM145.926 32.6745C146.036 31.2349 146.092 30.4598 146.092 30.349C146.092 27.2484 145.409 24.5353 144.043 22.2098C142.714 19.8474 140.869 18.0387 138.506 16.7837C136.144 15.5287 133.505 14.9012 130.588 14.9012C127.599 14.9012 124.886 15.5656 122.449 16.8944C120.05 18.1864 118.149 20.0136 116.746 22.3759C115.381 24.7014 114.698 27.3222 114.698 30.2383C114.698 33.1913 115.399 35.8305 116.802 38.156C118.204 40.4815 120.198 42.3087 122.782 43.6375C125.365 44.9295 128.337 45.5754 131.696 45.5754C137.085 45.5754 141.182 43.9697 143.988 40.7583L139.392 35.7752C138.359 36.7718 137.233 37.5101 136.015 37.9899C134.833 38.4329 133.468 38.6543 131.917 38.6543C129.666 38.6543 127.783 38.1191 126.27 37.0486C124.756 35.9782 123.797 34.5201 123.391 32.6745H145.926ZM125.716 23.0957C127.045 21.9884 128.688 21.4347 130.644 21.4347C132.563 21.4347 134.187 22.0068 135.516 23.1511C136.845 24.2585 137.657 25.7534 137.953 27.636H123.28C123.575 25.7165 124.387 24.2031 125.716 23.0957ZM160.258 43.2499C163.47 44.9479 167.05 45.7969 171 45.7969C174.359 45.7969 177.404 45.2063 180.136 44.0251C182.867 42.8439 185.156 41.1275 187.001 38.8758L181.243 33.5604C178.622 36.6241 175.374 38.156 171.498 38.156C169.099 38.156 166.958 37.6392 165.075 36.6057C163.193 35.5352 161.716 34.0587 160.646 32.1762C159.612 30.2937 159.096 28.1527 159.096 25.7534C159.096 23.3541 159.612 21.2132 160.646 19.3307C161.716 17.4481 163.193 15.9901 165.075 14.9565C166.958 13.8861 169.099 13.3509 171.498 13.3509C175.374 13.3509 178.622 14.8643 181.243 17.8911L187.001 12.5757C185.156 10.3609 182.867 8.66298 180.136 7.48178C177.441 6.30058 174.414 5.70998 171.055 5.70998C167.069 5.70998 163.47 6.57742 160.258 8.31231C157.084 10.0103 154.574 12.3911 152.728 15.4549C150.919 18.4817 150.015 21.9145 150.015 25.7534C150.015 29.5923 150.919 33.0436 152.728 36.1074C154.574 39.1342 157.084 41.5151 160.258 43.2499ZM214.879 18.2233C212.406 16.0086 208.862 14.9012 204.248 14.9012C201.849 14.9012 199.505 15.2149 197.216 15.8424C194.965 16.47 193.027 17.3559 191.403 18.5001L194.503 24.5353C195.574 23.6863 196.866 23.0219 198.379 22.5421C199.93 22.0253 201.498 21.7669 203.086 21.7669C205.374 21.7669 207.091 22.2837 208.235 23.3172C209.379 24.3139 209.951 25.7534 209.951 27.636H203.086C198.73 27.636 195.5 28.4296 193.396 30.0168C191.329 31.6041 190.295 33.7819 190.295 36.5503C190.295 38.2852 190.738 39.8355 191.624 41.2013C192.51 42.5671 193.784 43.6375 195.445 44.4127C197.143 45.1878 199.136 45.5754 201.424 45.5754C205.854 45.5754 208.881 44.1912 210.505 41.4228V45.1325H218.589V28.1343C218.589 23.7048 217.352 20.4011 214.879 18.2233ZM207.515 38.7651C206.371 39.4295 205.06 39.7617 203.584 39.7617C202.07 39.7617 200.871 39.448 199.985 38.8204C199.136 38.156 198.711 37.2701 198.711 36.1627C198.711 33.8373 200.483 32.6745 204.027 32.6745H209.951V35.7198C209.471 37.0486 208.659 38.0637 207.515 38.7651ZM229.175 44.6895C231.537 45.2801 233.955 45.5754 236.428 45.5754C239.344 45.5754 241.854 45.1878 243.958 44.4127C246.099 43.6006 247.723 42.4748 248.83 41.0352C249.938 39.5956 250.491 37.953 250.491 36.1074C250.491 33.9295 249.919 32.2316 248.775 31.0135C247.631 29.7953 246.283 28.9648 244.733 28.5219C243.183 28.042 241.19 27.5991 238.753 27.193C236.575 26.8608 234.988 26.5101 233.992 26.141C232.995 25.7719 232.497 25.1259 232.497 24.2031C232.497 23.391 232.958 22.7266 233.881 22.2098C234.804 21.6931 236.188 21.4347 238.034 21.4347C241.134 21.4347 243.995 22.1729 246.616 23.6494L249.495 17.5035C248.129 16.6914 246.394 16.0639 244.29 15.621C242.223 15.1411 240.138 14.9012 238.034 14.9012C235.191 14.9012 232.718 15.3072 230.614 16.1193C228.547 16.9314 226.96 18.0756 225.852 19.5521C224.782 20.9917 224.247 22.6528 224.247 24.5353C224.247 26.787 224.819 28.5219 225.963 29.74C227.144 30.9581 228.529 31.8071 230.116 32.2869C231.703 32.7668 233.715 33.1913 236.151 33.5604C238.218 33.8188 239.75 34.1326 240.747 34.5017C241.743 34.8708 242.242 35.4799 242.242 36.3288C242.242 38.1376 240.414 39.0419 236.76 39.0419C234.951 39.0419 233.106 38.7835 231.223 38.2668C229.341 37.7131 227.735 37.0117 226.406 36.1627L223.527 42.364C224.93 43.2868 226.812 44.062 229.175 44.6895ZM262.299 32.6745H284.834C284.945 31.2349 285 30.4598 285 30.349C285 27.2484 284.317 24.5353 282.951 22.2098C281.623 19.8474 279.777 18.0387 277.414 16.7837C275.052 15.5287 272.413 14.9012 269.497 14.9012C266.507 14.9012 263.794 15.5656 261.358 16.8944C258.958 18.1864 257.057 20.0136 255.655 22.3759C254.289 24.7014 253.606 27.3222 253.606 30.2383C253.606 33.1913 254.307 35.8305 255.71 38.156C257.113 40.4815 259.106 42.3087 261.69 43.6375C264.274 44.9295 267.245 45.5754 270.604 45.5754C275.993 45.5754 280.091 43.9697 282.896 40.7583L278.3 35.7752C277.267 36.7718 276.141 37.5101 274.923 37.9899C273.742 38.4329 272.376 38.6543 270.826 38.6543C268.574 38.6543 266.691 38.1191 265.178 37.0486C263.665 35.9782 262.705 34.5201 262.299 32.6745ZM264.624 23.0957C265.953 21.9884 267.596 21.4347 269.552 21.4347C271.472 21.4347 273.096 22.0068 274.425 23.1511C275.753 24.2585 276.565 25.7534 276.861 27.636H262.188C262.483 25.7165 263.296 24.2031 264.624 23.0957Z" fill="url(#paint0_linear_7_955)"/>
<defs>
<linearGradient id="paint0_linear_7_955" x1="0" y1="0" x2="251.366" y2="136.319" gradientUnits="userSpaceOnUse">
<stop stop-color="#643CF7"/>
<stop offset="0.245266" stop-color="#7639F5"/>
<stop offset="0.531468" stop-color="#3654FA"/>
<stop offset="0.797839" stop-color="#1288FC"/>
<stop offset="1" stop-color="#0995FF"/>
</linearGradient>
</defs>
</svg>
