<svg width="225" height="42" viewBox="0 0 225 42" fill="none" xmlns="http://www.w3.org/2000/svg">
<path fill-rule="evenodd" clip-rule="evenodd" d="M24.689 0.00132495C25.8327 -0.0392055 26.7928 0.855124 26.8333 1.99887L27.2269 13.1057L37.3897 8.60742C38.4362 8.14421 39.6601 8.61708 40.1233 9.66361C40.5865 10.7101 40.1136 11.934 39.0671 12.3972L26.1032 18.1353C25.4741 18.4137 24.7479 18.3619 24.1649 17.9969C23.5818 17.6318 23.2179 17.0013 23.1935 16.3138L22.6914 2.14564C22.6509 1.0019 23.5452 0.0418555 24.689 0.00132495ZM5.00367 10.4757C3.90163 10.167 2.75799 10.8102 2.44928 11.9122C2.14057 13.0142 2.78369 14.1579 3.88573 14.4666L17.5373 18.2907C18.1997 18.4763 18.911 18.3211 19.4358 17.8764C19.9607 17.4317 20.2306 16.7555 20.1564 16.0717L18.6261 1.97742C18.5026 0.839651 17.4801 0.0174474 16.3423 0.140981C15.2045 0.264514 14.3823 1.287 14.5059 2.42478L15.7055 13.4736L5.00367 10.4757ZM5.24031 32.8777C4.52996 33.775 4.68153 35.0783 5.57886 35.7886C6.47618 36.499 7.77946 36.3474 8.48981 35.4501L17.2893 24.3344C17.7163 23.7951 17.8478 23.079 17.6403 22.4232C17.4328 21.7673 16.9133 21.2572 16.2538 21.0616L2.66203 17.0302C1.56482 16.7047 0.41153 17.3304 0.0860902 18.4276C-0.23935 19.5248 0.386296 20.6781 1.48351 21.0035L12.1385 24.1638L5.24031 32.8777ZM42.0933 19.2113C43.1587 18.7934 43.6836 17.5909 43.2657 16.5255C42.8478 15.4601 41.6453 14.9352 40.5799 15.3531L27.3818 20.53C26.7414 20.7812 26.2674 21.3338 26.1167 22.005C25.9659 22.6762 26.158 23.3784 26.6295 23.8793L36.3457 34.2033C37.1301 35.0367 38.4415 35.0764 39.275 34.2921C40.1084 33.5077 40.1481 32.1963 39.3638 31.3629L31.747 23.2697L42.0933 19.2113ZM31.9074 40.5015C30.9985 41.1969 29.6979 41.0239 29.0024 40.115L22.2489 31.2885L16.5693 40.8414C15.9844 41.8251 14.7128 42.1485 13.7291 41.5636C12.7454 40.9788 12.4221 39.7072 13.0069 38.7234L20.252 26.5375C20.6036 25.9462 21.2256 25.5679 21.9123 25.5278C22.5991 25.4876 23.2609 25.7909 23.679 26.3372L32.2939 37.5965C32.9894 38.5054 32.8163 39.806 31.9074 40.5015ZM59.9913 5.03242H52.9099V35.6309H59.9913V5.03242ZM71.3619 34.4507C73.3726 35.4706 75.6311 35.9806 78.1372 35.9806C80.6143 35.9806 82.7707 35.456 84.6066 34.407C86.4717 33.3579 87.8268 31.9008 88.6719 30.0357L83.3827 27.1508C82.1879 29.3072 80.4249 30.3854 78.0935 30.3854C76.3159 30.3854 74.8443 29.8026 73.6786 28.637C72.513 27.4713 71.9301 25.8831 71.9301 23.8723C71.9301 21.8616 72.513 20.2734 73.6786 19.1077C74.8443 17.9421 76.3159 17.3592 78.0935 17.3592C80.3957 17.3592 82.1588 18.4375 83.3827 20.5939L88.6719 17.7526C87.8268 15.8293 86.4717 14.3577 84.6066 13.3377C82.7707 12.2886 80.6143 11.7641 78.1372 11.7641C75.6311 11.7641 73.3726 12.2886 71.3619 13.3377C69.3803 14.3577 67.8212 15.7856 66.6847 17.6215C65.5773 19.4574 65.0236 21.541 65.0236 23.8723C65.0236 26.2037 65.5773 28.2873 66.6847 30.1232C67.8212 31.9591 69.3803 33.4016 71.3619 34.4507ZM115.204 25.7957C115.292 24.6592 115.336 24.0472 115.336 23.9598C115.336 21.5119 114.796 19.37 113.718 17.5341C112.669 15.669 111.212 14.2411 109.347 13.2503C107.482 12.2595 105.398 11.7641 103.096 11.7641C100.736 11.7641 98.5938 12.2886 96.6705 13.3377C94.7763 14.3577 93.2755 15.8002 92.1682 17.6652C91.0899 19.5011 90.5508 21.5702 90.5508 23.8723C90.5508 26.2037 91.1045 28.2873 92.2119 30.1232C93.3192 31.9591 94.8929 33.4016 96.9328 34.4507C98.9727 35.4706 101.319 35.9806 103.97 35.9806C108.225 35.9806 111.46 34.7129 113.675 32.1776L110.046 28.2436C109.23 29.0304 108.342 29.6132 107.38 29.992C106.447 30.3417 105.369 30.5166 104.145 30.5166C102.368 30.5166 100.881 30.094 99.6866 29.2489C98.4918 28.4038 97.7342 27.2527 97.4136 25.7957H115.204ZM99.2495 18.2335C100.299 17.3592 101.595 16.9221 103.14 16.9221C104.655 16.9221 105.937 17.3738 106.987 18.2772C108.036 19.1514 108.677 20.3317 108.91 21.8179H97.3262C97.5593 20.3025 98.2004 19.1077 99.2495 18.2335ZM126.52 34.1447C129.055 35.4852 131.882 36.1554 135 36.1554C137.652 36.1554 140.056 35.6892 142.212 34.7567C144.369 33.8241 146.176 32.4691 147.633 30.6914L143.087 26.4951C141.018 28.9138 138.453 30.1232 135.393 30.1232C133.499 30.1232 131.809 29.7152 130.323 28.8992C128.836 28.0541 127.671 26.8885 126.826 25.4023C126.01 23.9161 125.602 22.2259 125.602 20.3317C125.602 18.4375 126.01 16.7473 126.826 15.2611C127.671 13.7748 128.836 12.6238 130.323 11.8078C131.809 10.9627 133.499 10.5402 135.393 10.5402C138.453 10.5402 141.018 11.7349 143.087 14.1245L147.633 9.92818C146.176 8.1797 144.369 6.83919 142.212 5.90667C140.085 4.97414 137.695 4.50788 135.044 4.50788C131.896 4.50788 129.055 5.1927 126.52 6.56235C124.014 7.90285 122.032 9.78247 120.575 12.2012C119.147 14.5908 118.433 17.301 118.433 20.3317C118.433 23.3624 119.147 26.0871 120.575 28.5058C122.032 30.8954 124.014 32.775 126.52 34.1447ZM169.641 14.3868C167.689 12.6383 164.891 11.7641 161.249 11.7641C159.354 11.7641 157.504 12.0118 155.697 12.5072C153.92 13.0026 152.39 13.702 151.107 14.6054L153.555 19.37C154.4 18.6997 155.42 18.1752 156.615 17.7964C157.839 17.3884 159.078 17.1844 160.331 17.1844C162.137 17.1844 163.493 17.5924 164.396 18.4083C165.299 19.1951 165.751 20.3317 165.751 21.8179H160.331C156.892 21.8179 154.342 22.4444 152.681 23.6975C151.049 24.9506 150.233 26.6699 150.233 28.8555C150.233 30.2252 150.583 31.4491 151.282 32.5273C151.982 33.6056 152.987 34.4507 154.298 35.0626C155.639 35.6746 157.213 35.9806 159.019 35.9806C162.516 35.9806 164.906 34.8878 166.188 32.7022V35.6309H172.57V22.2113C172.57 18.7143 171.594 16.1062 169.641 14.3868ZM163.828 30.604C162.924 31.1286 161.89 31.3908 160.724 31.3908C159.529 31.3908 158.582 31.1431 157.883 30.6477C157.213 30.1232 156.877 29.4238 156.877 28.5495C156.877 26.7136 158.276 25.7957 161.074 25.7957H165.751V28.1998C165.372 29.2489 164.731 30.0503 163.828 30.604ZM180.927 35.2812C182.792 35.7475 184.701 35.9806 186.654 35.9806C188.956 35.9806 190.937 35.6746 192.598 35.0626C194.289 34.4215 195.571 33.5327 196.445 32.3962C197.319 31.2597 197.756 29.9629 197.756 28.5058C197.756 26.7865 197.305 25.446 196.401 24.4843C195.498 23.5226 194.434 22.867 193.21 22.5173C191.986 22.1384 190.413 21.7887 188.489 21.4682C186.77 21.2059 185.517 20.9291 184.73 20.6376C183.943 20.3462 183.55 19.8363 183.55 19.1077C183.55 18.4666 183.914 17.9421 184.643 17.5341C185.371 17.1261 186.464 16.9221 187.921 16.9221C190.369 16.9221 192.628 17.5049 194.697 18.6706L196.97 13.8186C195.891 13.1774 194.522 12.682 192.861 12.3323C191.229 11.9535 189.582 11.7641 187.921 11.7641C185.677 11.7641 183.725 12.0846 182.064 12.7258C180.432 13.3669 179.179 14.2702 178.305 15.4359C177.459 16.5724 177.037 17.8838 177.037 19.37C177.037 21.1476 177.489 22.5173 178.392 23.4789C179.324 24.4406 180.417 25.1109 181.67 25.4897C182.923 25.8685 184.512 26.2037 186.435 26.4951C188.067 26.6991 189.276 26.9468 190.063 27.2382C190.85 27.5296 191.243 28.0104 191.243 28.6807C191.243 30.1086 189.801 30.8226 186.916 30.8226C185.488 30.8226 184.031 30.6186 182.545 30.2106C181.058 29.7735 179.791 29.2198 178.742 28.5495L176.469 33.4453C177.576 34.1738 179.062 34.7858 180.927 35.2812ZM207.078 25.7957H224.869C224.956 24.6592 225 24.0472 225 23.9598C225 21.5119 224.461 19.37 223.383 17.5341C222.334 15.669 220.877 14.2411 219.011 13.2503C217.146 12.2595 215.063 11.7641 212.761 11.7641C210.4 11.7641 208.258 12.2886 206.335 13.3377C204.441 14.3577 202.94 15.8002 201.833 17.6652C200.754 19.5011 200.215 21.5702 200.215 23.8723C200.215 26.2037 200.769 28.2873 201.876 30.1232C202.984 31.9591 204.557 33.4016 206.597 34.4507C208.637 35.4706 210.983 35.9806 213.635 35.9806C217.889 35.9806 221.124 34.7129 223.339 32.1776L219.711 28.2436C218.895 29.0304 218.006 29.6132 217.044 29.992C216.112 30.3417 215.034 30.5166 213.81 30.5166C212.032 30.5166 210.546 30.094 209.351 29.2489C208.156 28.4038 207.399 27.2527 207.078 25.7957ZM208.914 18.2335C209.963 17.3592 211.26 16.9221 212.804 16.9221C214.32 16.9221 215.602 17.3738 216.651 18.2772C217.7 19.1514 218.341 20.3317 218.574 21.8179H206.991C207.224 20.3025 207.865 19.1077 208.914 18.2335Z" fill="white"/>
</svg>
